<svg height='300px' width='300px'  fill="#FFFFFF" xmlns="http://www.w3.org/2000/svg" xmlns:xlink="http://www.w3.org/1999/xlink" version="1.1" x="0px" y="0px" viewBox="0 0 100 100" enable-background="new 0 0 100 100" xml:space="preserve"><g><g><path fill="none" d="M50.129,55.131c4.721,0,8.605-5.21,9.108-11.908c0.062-0.432,0.098-0.875,0.104-1.325l-1.475,1.694    c0.813-1.799-2.081-6.38-2.081-6.38c-4.877,3.528-12.128,0-12.128,0c-2.188,0.863-1.151,7.017-1.151,7.017    c-0.546-0.38-1.047-0.58-1.456-0.682C41.652,50.088,45.488,55.131,50.129,55.131z"></path><path fill="none" d="M58.432,55.206c0.001-0.004,0.001-0.007,0.002-0.009C58.434,55.199,58.432,55.204,58.432,55.206    c-0.025,0.24-0.082,0.477-0.172,0.707C58.35,55.682,58.407,55.446,58.432,55.206z"></path><path d="M39.757,43.168c0.007,0.1,0.016,0.197,0.024,0.296c0.662,7.488,5.042,13.271,10.348,13.271    c5.377,0,9.803-5.935,10.375-13.564c0.079-0.547,0.121-1.109,0.121-1.681c0-0.57-0.042-1.131-0.121-1.68    c-0.77-5.303-5.121-9.367-10.375-9.367c-5.253,0-9.605,4.066-10.372,9.372c-0.08,0.547-0.121,1.106-0.121,1.675    c0,0.232,0.009,0.463,0.022,0.69C39.678,42.514,39.71,42.844,39.757,43.168z M43.657,37.212c0,0,7.251,3.528,12.128,0    c0,0,2.894,4.581,2.081,6.38l1.475-1.694c-0.006,0.45-0.042,0.893-0.104,1.325c-0.503,6.698-4.388,11.908-9.108,11.908    c-4.642,0-8.477-5.043-9.08-11.583c0.409,0.102,0.91,0.301,1.456,0.682C42.506,44.229,41.47,38.076,43.657,37.212z"></path><path d="M59.746,55.173c-0.424-0.078-0.852-0.14-1.289-0.178l0,0h-0.001c0,0.018-0.002,0.037-0.005,0.057    c-0.002,0.048-0.009,0.1-0.019,0.153c0-0.002,0.002-0.007,0.002-0.009c-0.001,0.002-0.001,0.005-0.002,0.009    c-0.025,0.24-0.082,0.477-0.172,0.707c0.09-0.23,0.146-0.467,0.172-0.707c-0.053,0.324-0.207,0.742-0.438,1.229    c-1.205,2.55-4.501,6.998-6.541,9.651l-0.388-5.524c0.529-0.272,0.986-0.708,1.295-1.219c0.258-0.42,0.416-0.893,0.416-1.37    c0,0-1.433,0.635-2.896,0.635c-1.461,0-2.895-0.635-2.895-0.635c0,0.442,0.136,0.878,0.359,1.272    c0.309,0.553,0.79,1.027,1.352,1.316l-0.397,5.67c-1.92-2.73-5.18-7.537-6.188-10.075l0,0c-0.143-0.36-0.24-0.673-0.281-0.931    v-0.001c-0.01-0.06-0.016-0.116-0.019-0.169c0-0.001,0-0.002,0-0.003c-0.002-0.02-0.005-0.039-0.005-0.057c0,0-0.001,0-0.001,0    c-0.206,0.019-0.411,0.043-0.614,0.07c-0.012,0.001-0.023,0.002-0.035,0.005C34.486,56,29.352,61.726,29.352,68.654    c0,7.574,6.141,7.557,13.716,7.557h14.125c7.576,0,13.718,0.018,13.718-7.557C70.911,61.95,66.101,56.37,59.746,55.173z"></path></g><g><path fill="#FFFFFF" d="M50.756,37.533c-0.137,0.137-0.359,0.137-0.496,0l-8.433-4.957l-0.281,3.588l7.31,3.269    c0.789,0.788,2.515,0.788,3.302,0l6.835-2.994l-0.351-3.518L50.756,37.533z"></path><path fill="#FFFFFF" d="M64.692,29.08l-13.845-5.76c-0.162-0.163-0.427-0.163-0.589,0l-13.845,5.76    c-0.163,0.163-0.163,0.427,0,0.59l1.032,0.597l-0.065,0.913c-0.354,0.059-0.625,0.366-0.625,0.738    c0,0.333,0.219,0.616,0.521,0.713l-0.604,8.458l0.834,2.501l0.834-2.501l-0.605-8.458c0.302-0.098,0.521-0.38,0.521-0.713    c0-0.372-0.27-0.68-0.625-0.738l-0.06-0.84l1.445,0.837l0.059,0.034l11.184,6.471c0.163,0.163,0.426,0.163,0.589,0l10.619-6.145    l0.623-0.36l2.604-1.506C64.856,29.507,64.856,29.243,64.692,29.08z"></path></g></g><g><g><path fill="none" d="M18.354,53.699c3.521,0,6.418-3.887,6.794-8.883c0.046-0.322,0.073-0.653,0.077-0.988l-1.099,1.263    c0.606-1.342-1.553-4.758-1.553-4.758c-3.638,2.631-9.046,0-9.046,0c-1.632,0.644-0.859,5.234-0.859,5.234    c-0.407-0.284-0.781-0.432-1.086-0.508C12.031,49.937,14.892,53.699,18.354,53.699z"></path><path fill="none" d="M24.546,53.754c0.001-0.004,0.001-0.006,0.002-0.008C24.548,53.749,24.546,53.751,24.546,53.754    c-0.019,0.179-0.061,0.354-0.127,0.526C24.485,54.109,24.528,53.933,24.546,53.754z"></path><path d="M10.617,44.774c0.005,0.075,0.012,0.147,0.019,0.221c0.494,5.586,3.761,9.899,7.719,9.899    c4.01,0,7.312-4.427,7.738-10.117c0.06-0.409,0.09-0.828,0.09-1.254c0-0.425-0.031-0.844-0.09-1.253    c-0.574-3.956-3.82-6.987-7.738-6.987c-3.919,0-7.165,3.033-7.737,6.99c-0.059,0.408-0.09,0.825-0.09,1.25    c0,0.173,0.007,0.345,0.016,0.515C10.558,44.287,10.582,44.533,10.617,44.774z M13.526,40.333c0,0,5.408,2.631,9.046,0    c0,0,2.159,3.417,1.553,4.758l1.099-1.263c-0.004,0.335-0.031,0.666-0.077,0.988c-0.375,4.996-3.273,8.883-6.794,8.883    c-3.462,0-6.323-3.762-6.773-8.641c0.305,0.076,0.679,0.225,1.086,0.508C12.667,45.566,11.895,40.977,13.526,40.333z"></path><path d="M25.527,53.73c-0.316-0.059-0.636-0.104-0.962-0.133l0,0h-0.001c0,0.013-0.001,0.027-0.003,0.042    c-0.002,0.036-0.006,0.074-0.015,0.115c0-0.003,0.002-0.006,0.002-0.008c-0.001,0.002-0.001,0.004-0.002,0.008    c-0.019,0.179-0.061,0.354-0.127,0.526c0.066-0.172,0.109-0.348,0.127-0.526c-0.039,0.241-0.154,0.553-0.326,0.915    c-0.899,1.902-3.358,5.22-4.88,7.199l-0.289-4.12c0.394-0.203,0.735-0.528,0.966-0.91c0.192-0.313,0.31-0.665,0.31-1.021    c0,0-1.068,0.474-2.159,0.474c-1.09,0-2.159-0.474-2.159-0.474c0,0.33,0.102,0.655,0.268,0.949    c0.23,0.412,0.589,0.767,1.008,0.982l-0.296,4.229c-1.433-2.037-3.864-5.622-4.616-7.516l0,0c-0.107-0.27-0.179-0.502-0.209-0.694    v-0.001c-0.007-0.044-0.012-0.086-0.015-0.126c0-0.001,0-0.002,0-0.002c-0.001-0.015-0.003-0.029-0.004-0.042c0,0,0,0-0.001,0    c-0.154,0.014-0.307,0.032-0.458,0.053c-0.009,0-0.018,0.001-0.026,0.003c-4.976,0.693-8.805,4.965-8.805,10.132    c0,5.649,4.581,5.637,10.231,5.637h10.536c5.651,0,10.232,0.013,10.232-5.637C33.855,58.784,30.267,54.622,25.527,53.73z"></path></g><g><path fill="#FFFFFF" d="M18.821,40.572c-0.103,0.103-0.268,0.103-0.37,0l-6.29-3.697l-0.209,2.676l5.453,2.438    c0.588,0.588,1.876,0.588,2.463,0l5.098-2.233l-0.261-2.624L18.821,40.572z"></path><path fill="#FFFFFF" d="M29.216,34.267L18.889,29.97c-0.121-0.122-0.318-0.122-0.44,0L8.123,34.267    C8,34.388,8,34.584,8.123,34.706l0.77,0.445l-0.049,0.681c-0.264,0.044-0.466,0.273-0.466,0.55c0,0.249,0.163,0.46,0.389,0.533    l-0.451,6.309l0.622,1.866l0.622-1.866l-0.451-6.309c0.226-0.073,0.389-0.284,0.389-0.533c0-0.277-0.202-0.506-0.466-0.55    l-0.045-0.626l1.078,0.625l0.043,0.025l8.342,4.826c0.122,0.122,0.318,0.122,0.439,0l7.92-4.583l0.465-0.268l1.942-1.124    C29.338,34.584,29.338,34.388,29.216,34.267z"></path></g></g><g><g><path fill="#FFFFFF" d="M82.507,40.827c-0.103,0.103-0.268,0.103-0.37,0l-6.289-3.697l-0.21,2.676l5.452,2.438    c0.588,0.587,1.876,0.587,2.464,0l5.098-2.233l-0.262-2.624L82.507,40.827z"></path><path fill="#FFFFFF" d="M92.902,34.521l-10.327-4.296c-0.121-0.122-0.317-0.122-0.439,0l-10.326,4.296    c-0.121,0.121-0.121,0.318,0,0.44l0.77,0.445l-0.049,0.68c-0.264,0.045-0.466,0.274-0.466,0.551c0,0.249,0.163,0.46,0.389,0.533    l-0.451,6.309l0.622,1.865l0.622-1.865l-0.451-6.309c0.226-0.073,0.389-0.284,0.389-0.533c0-0.277-0.201-0.506-0.466-0.551    l-0.045-0.625l1.078,0.624l0.044,0.025l8.341,4.827c0.122,0.122,0.318,0.122,0.439,0l7.92-4.583l0.466-0.269l1.941-1.123    C93.024,34.84,93.024,34.643,92.902,34.521z"></path></g><path fill="#FFFFFF" d="M90.7,55.757c1.756,0.189,3.296,0.48,3.296,0.48c-3.503-1.85-3.413-8.496-3.413-8.496   c0.613-12.87-8.221-12.196-8.221-12.196l-0.006,0.02l-0.008-0.02c0,0-8.834-0.673-8.222,12.196c0,0,0.09,6.646-3.413,8.496   c0,0,0.941-0.061,2.204-0.084c-3.572,1.534-6.062,4.979-6.062,8.982c0,5.435,4.579,4.473,10.23,4.473h10.536   c5.651,0,10.233,0.962,10.233-4.473C97.856,60.736,94.845,57.013,90.7,55.757z M84.721,58.338l-2.365,3.696l-2.367-3.696   c-1.721-0.376-3.049-1.148-3.584-2.1c1.388,0.115,2.563,0.361,2.866,0.84l-1.303-2.795c1.248,1.197,2.759,1.9,4.385,1.9   c1.59,0,3.07-0.67,4.301-1.819l-0.908,1.819c0.305-0.48,1.45-0.61,2.794-0.578C88.326,56.842,86.811,57.882,84.721,58.338z    M89.148,46.493c-0.132,1.703-0.584,3.272-1.267,4.588c-1.243,2.396-3.255,3.953-5.525,3.953c-3.464,0-6.326-3.618-6.775-8.308   c0,0,2.733-0.437,4.367-1.056c0,0,2.959-0.95,6.571-3.452c0.019-0.013,0.037-0.024,0.055-0.037c0,0,0.064,0.089,0.157,0.244   c0.313,0.515,0.984,2.057-0.284,2.761l2.313,0.283h0.044l0.423,0.075C89.22,45.866,89.196,46.184,89.148,46.493z"></path></g></svg>