<svg xmlns="http://www.w3.org/2000/svg" xmlns:xlink="http://www.w3.org/1999/xlink" height="53" width="95" fill="#FFFFFF" version="1.1" enable-background="new 0 0 100 100" xml:space="preserve" style=""><rect id="backgroundrect" width="100%" height="100%" x="0" y="0" fill="none" stroke="none" class="" style=""/><g class="currentLayer" style=""><title>Layer 1</title><g id="svg_1" class=""><g id="svg_2"><path fill="none" d="M47.2740023651123,31.933249908447266 c4.721,0 8.605,-5.21 9.108,-11.908 c0.06200000000000001,-0.43200000000000005 0.09800000000000003,-0.8750000000000001 0.10400000000000001,-1.3250000000000002 l-1.475,1.6940000000000002 c0.8130000000000001,-1.799 -2.081,-6.38 -2.081,-6.38 c-4.877,3.528 -12.128,0 -12.128,0 c-2.188,0.8630000000000001 -1.151,7.017 -1.151,7.017 c-0.546,-0.38000000000000006 -1.047,-0.5800000000000001 -1.456,-0.6820000000000002 C38.797002365112306,26.890249908447267 42.633002365112304,31.933249908447266 47.2740023651123,31.933249908447266 z" id="svg_3"/><path fill="none" d="M55.57700236511231,32.00824990844727 c0.0010000000000000002,-0.004000000000000001 0.0010000000000000002,-0.007000000000000002 0.0020000000000000005,-0.009000000000000003 C55.5790023651123,32.001249908447264 55.57700236511231,32.006249908447266 55.57700236511231,32.00824990844727 c-0.025000000000000005,0.24000000000000002 -0.08200000000000002,0.47700000000000004 -0.17200000000000001,0.7070000000000001 C55.495002365112306,32.48424990844727 55.5520023651123,32.248249908447264 55.57700236511231,32.00824990844727 z" id="svg_4"/><path d="M36.9020023651123,19.970249908447265 c0.007000000000000002,0.1 0.016000000000000004,0.19700000000000004 0.024000000000000004,0.29600000000000004 c0.6620000000000001,7.488 5.042,13.271 10.348,13.271 c5.377,0 9.803,-5.9350000000000005 10.375,-13.564 c0.07900000000000001,-0.547 0.12100000000000001,-1.109 0.12100000000000001,-1.681 c0,-0.5700000000000001 -0.04200000000000001,-1.131 -0.12100000000000001,-1.6800000000000002 c-0.77,-5.303 -5.121,-9.367 -10.375,-9.367 c-5.253,0 -9.605,4.066 -10.372,9.372 c-0.08000000000000002,0.547 -0.12100000000000001,1.106 -0.12100000000000001,1.6750000000000003 c0,0.232 0.009000000000000003,0.463 0.022000000000000006,0.6900000000000002 C36.8230023651123,19.31624990844727 36.855002365112306,19.646249908447267 36.9020023651123,19.970249908447265 zM40.80200236511231,14.014249908447269 c0,0 7.251,3.528 12.128,0 c0,0 2.894,4.581 2.081,6.38 l1.475,-1.6940000000000002 c-0.006000000000000002,0.45 -0.04200000000000001,0.8930000000000001 -0.10400000000000001,1.3250000000000002 c-0.503,6.698 -4.388,11.908 -9.108,11.908 c-4.642,0 -8.477,-5.043 -9.08,-11.583 c0.40900000000000003,0.10200000000000001 0.91,0.30100000000000005 1.456,0.6820000000000002 C39.651002365112305,21.031249908447265 38.6150023651123,14.878249908447266 40.80200236511231,14.014249908447269 z" id="svg_5"/><path d="M56.89100236511231,31.975249908447267 c-0.42400000000000004,-0.07800000000000001 -0.8520000000000001,-0.14 -1.2890000000000001,-0.17800000000000002 l0,0 h-0.0010000000000000002 c0,0.018000000000000002 -0.0020000000000000005,0.037000000000000005 -0.005000000000000001,0.05700000000000001 c-0.0020000000000000005,0.04800000000000001 -0.009000000000000003,0.1 -0.019000000000000003,0.15300000000000002 c0,-0.0020000000000000005 0.0020000000000000005,-0.007000000000000002 0.0020000000000000005,-0.009000000000000003 c-0.0010000000000000002,0.0020000000000000005 -0.0010000000000000002,0.005000000000000001 -0.0020000000000000005,0.009000000000000003 c-0.025000000000000005,0.24000000000000002 -0.08200000000000002,0.47700000000000004 -0.17200000000000001,0.7070000000000001 c0.09000000000000002,-0.23 0.14600000000000002,-0.467 0.17200000000000001,-0.7070000000000001 c-0.05300000000000001,0.32400000000000007 -0.20700000000000002,0.7420000000000001 -0.43800000000000006,1.229 c-1.205,2.55 -4.501,6.998 -6.541,9.651 l-0.38800000000000007,-5.524 c0.529,-0.272 0.986,-0.7080000000000001 1.295,-1.219 c0.258,-0.42000000000000004 0.41600000000000004,-0.8930000000000001 0.41600000000000004,-1.37 c0,0 -1.433,0.6350000000000001 -2.896,0.6350000000000001 c-1.461,0 -2.895,-0.6350000000000001 -2.895,-0.6350000000000001 c0,0.44200000000000006 0.136,0.8780000000000001 0.35900000000000004,1.272 c0.30900000000000005,0.553 0.79,1.027 1.352,1.316 l-0.3970000000000001,5.67 c-1.92,-2.73 -5.18,-7.537 -6.188,-10.075 l0,0 c-0.14300000000000002,-0.36000000000000004 -0.24000000000000002,-0.6730000000000002 -0.281,-0.931 v-0.0010000000000000002 c-0.010000000000000002,-0.06000000000000001 -0.016000000000000004,-0.11600000000000002 -0.019000000000000003,-0.16900000000000004 c0,-0.0010000000000000002 0,-0.0020000000000000005 0,-0.003000000000000001 c-0.0020000000000000005,-0.020000000000000004 -0.005000000000000001,-0.03900000000000001 -0.005000000000000001,-0.05700000000000001 c0,0 -0.0010000000000000002,0 -0.0010000000000000002,0 c-0.20600000000000002,0.019000000000000003 -0.41100000000000003,0.04300000000000001 -0.6140000000000001,0.07 c-0.012000000000000002,0.0010000000000000002 -0.023000000000000007,0.0020000000000000005 -0.035,0.005000000000000001 C31.631002365112302,32.802249908447266 26.497002365112305,38.528249908447265 26.497002365112305,45.45624990844726 c0,7.574 6.141,7.557 13.716,7.557 h14.125 c7.5760000000000005,0 13.718,0.018000000000000002 13.718,-7.557 C68.0560023651123,38.75224990844727 63.246002365112304,33.17224990844726 56.89100236511231,31.975249908447267 z" id="svg_6"/></g><g id="svg_7"><path fill="#FFFFFF" d="M47.901002365112305,14.335249908447267 c-0.137,0.137 -0.35900000000000004,0.137 -0.49600000000000005,0 l-8.433,-4.957 l-0.281,3.588 l7.3100000000000005,3.269 c0.789,0.788 2.515,0.788 3.302,0 l6.835,-2.9939999999999998 l-0.35100000000000003,-3.518 L47.901002365112305,14.335249908447267 z" id="svg_8"/><path fill="#FFFFFF" d="M61.83700236511231,5.882249908447264 l-13.845,-5.76 c-0.16200000000000003,-0.16300000000000003 -0.42700000000000005,-0.16300000000000003 -0.5890000000000001,0 l-13.845,5.76 c-0.16300000000000003,0.16300000000000003 -0.16300000000000003,0.42700000000000005 0,0.5900000000000001 l1.032,0.5970000000000001 l-0.06500000000000002,0.913 c-0.35400000000000004,0.05900000000000001 -0.6250000000000001,0.36600000000000005 -0.6250000000000001,0.7380000000000001 c0,0.3330000000000001 0.21900000000000003,0.6160000000000001 0.521,0.7130000000000001 l-0.6040000000000001,8.458 l0.8340000000000001,2.501 l0.8340000000000001,-2.501 l-0.6050000000000001,-8.458 c0.30200000000000005,-0.09800000000000003 0.521,-0.38000000000000006 0.521,-0.7130000000000001 c0,-0.37200000000000005 -0.27,-0.6800000000000002 -0.6250000000000001,-0.7380000000000001 l-0.06000000000000001,-0.8400000000000001 l1.445,0.8370000000000001 l0.05900000000000001,0.03400000000000001 l11.184,6.471 c0.16300000000000003,0.16300000000000003 0.42600000000000005,0.16300000000000003 0.5890000000000001,0 l10.619,-6.145 l0.6230000000000001,-0.36000000000000004 l2.604,-1.506 C62.0010023651123,6.309249908447267 62.0010023651123,6.045249908447264 61.83700236511231,5.882249908447264 z" id="svg_9"/></g></g><g id="svg_10" class=""><g id="svg_11"><path fill="none" d="M15.499002365112304,30.501249908447264 c3.521,0 6.418,-3.887 6.7940000000000005,-8.883000000000001 c0.04600000000000001,-0.32200000000000006 0.07300000000000001,-0.6530000000000001 0.07700000000000001,-0.988 l-1.099,1.263 c0.6060000000000001,-1.342 -1.553,-4.758 -1.553,-4.758 c-3.638,2.6310000000000002 -9.046,0 -9.046,0 c-1.6320000000000001,0.6440000000000001 -0.8590000000000001,5.234 -0.8590000000000001,5.234 c-0.40700000000000003,-0.28400000000000003 -0.781,-0.43200000000000005 -1.086,-0.508 C9.176002365112305,26.739249908447263 12.037002365112304,30.501249908447264 15.499002365112304,30.501249908447264 z" id="svg_12"/><path fill="none" d="M21.691002365112304,30.556249908447263 c0.0010000000000000002,-0.004000000000000001 0.0010000000000000002,-0.006000000000000002 0.0020000000000000005,-0.008000000000000002 C21.693002365112307,30.551249908447268 21.691002365112304,30.553249908447263 21.691002365112304,30.556249908447263 c-0.019000000000000003,0.17900000000000002 -0.06100000000000001,0.35400000000000004 -0.127,0.526 C21.630002365112304,30.911249908447267 21.673002365112303,30.735249908447265 21.691002365112304,30.556249908447263 z" id="svg_13"/><path d="M7.762002365112306,21.576249908447267 c0.005000000000000001,0.07500000000000001 0.012000000000000002,0.14700000000000002 0.019000000000000003,0.22100000000000003 c0.49400000000000005,5.586 3.761,9.899000000000001 7.719,9.899000000000001 c4.01,0 7.312,-4.427 7.738,-10.117 c0.06000000000000001,-0.40900000000000003 0.09000000000000002,-0.8280000000000001 0.09000000000000002,-1.254 c0,-0.42500000000000004 -0.031000000000000007,-0.8440000000000001 -0.09000000000000002,-1.2530000000000001 c-0.5740000000000001,-3.956 -3.8200000000000003,-6.987 -7.738,-6.987 c-3.919,0 -7.165,3.033 -7.737,6.99 c-0.05900000000000001,0.40800000000000003 -0.09000000000000002,0.8250000000000001 -0.09000000000000002,1.25 c0,0.17300000000000001 0.007000000000000002,0.3450000000000001 0.016000000000000004,0.515 C7.7030023651123045,21.089249908447265 7.727002365112305,21.335249908447267 7.762002365112306,21.576249908447267 zM10.671002365112304,17.135249908447264 c0,0 5.408,2.6310000000000002 9.046,0 c0,0 2.159,3.417 1.553,4.758 l1.099,-1.263 c-0.004000000000000001,0.3350000000000001 -0.031000000000000007,0.6660000000000001 -0.07700000000000001,0.988 c-0.37500000000000006,4.996 -3.273,8.883000000000001 -6.7940000000000005,8.883000000000001 c-3.462,0 -6.323,-3.762 -6.773,-8.641 c0.30500000000000005,0.07600000000000001 0.6790000000000002,0.22500000000000003 1.086,0.508 C9.812002365112305,22.368249908447268 9.040002365112304,17.779249908447262 10.671002365112304,17.135249908447264 z" id="svg_14"/><path d="M22.672002365112306,30.532249908447262 c-0.31600000000000006,-0.05900000000000001 -0.6360000000000001,-0.10400000000000001 -0.9620000000000001,-0.133 l0,0 h-0.0010000000000000002 c0,0.013000000000000003 -0.0010000000000000002,0.027000000000000007 -0.003000000000000001,0.04200000000000001 c-0.0020000000000000005,0.036000000000000004 -0.006000000000000002,0.07400000000000001 -0.015000000000000003,0.11500000000000002 c0,-0.003000000000000001 0.0020000000000000005,-0.006000000000000002 0.0020000000000000005,-0.008000000000000002 c-0.0010000000000000002,0.0020000000000000005 -0.0010000000000000002,0.004000000000000001 -0.0020000000000000005,0.008000000000000002 c-0.019000000000000003,0.17900000000000002 -0.06100000000000001,0.35400000000000004 -0.127,0.526 c0.06600000000000002,-0.17200000000000001 0.10900000000000001,-0.3480000000000001 0.127,-0.526 c-0.03900000000000001,0.24100000000000002 -0.15400000000000003,0.553 -0.32600000000000007,0.915 c-0.8990000000000001,1.9020000000000001 -3.358,5.22 -4.88,7.199 l-0.28900000000000003,-4.12 c0.3940000000000001,-0.203 0.7350000000000001,-0.528 0.9660000000000001,-0.91 c0.19200000000000003,-0.31300000000000006 0.31000000000000005,-0.6650000000000001 0.31000000000000005,-1.021 c0,0 -1.068,0.47400000000000003 -2.159,0.47400000000000003 c-1.09,0 -2.159,-0.47400000000000003 -2.159,-0.47400000000000003 c0,0.33000000000000007 0.10200000000000001,0.6550000000000001 0.268,0.9490000000000001 c0.23,0.41200000000000003 0.5890000000000001,0.7670000000000001 1.008,0.982 l-0.29600000000000004,4.229 c-1.433,-2.037 -3.864,-5.622 -4.616,-7.516 l0,0 c-0.10700000000000001,-0.27 -0.17900000000000002,-0.502 -0.20900000000000002,-0.6940000000000002 v-0.0010000000000000002 c-0.007000000000000002,-0.04400000000000001 -0.012000000000000002,-0.08600000000000002 -0.015000000000000003,-0.126 c0,-0.0010000000000000002 0,-0.0020000000000000005 0,-0.0020000000000000005 c-0.0010000000000000002,-0.015000000000000003 -0.003000000000000001,-0.029000000000000005 -0.004000000000000001,-0.04200000000000001 c0,0 0,0 -0.0010000000000000002,0 c-0.15400000000000003,0.014000000000000002 -0.30700000000000005,0.03200000000000001 -0.458,0.05300000000000001 c-0.009000000000000003,0 -0.018000000000000002,0.0010000000000000002 -0.026000000000000006,0.003000000000000001 c-4.976,0.6930000000000002 -8.805,4.965 -8.805,10.132 c0,5.649 4.581,5.6370000000000005 10.231,5.6370000000000005 h10.536 c5.651,0 10.232,0.013000000000000003 10.232,-5.6370000000000005 C31.0000023651123,35.586249908447265 27.412002365112304,31.424249908447266 22.672002365112306,30.532249908447262 z" id="svg_15"/></g><g id="svg_16"><path fill="#FFFFFF" d="M15.966002365112306,17.37424990844727 c-0.10300000000000001,0.10300000000000001 -0.268,0.10300000000000001 -0.37000000000000005,0 l-6.29,-3.697 l-0.20900000000000002,2.676 l5.453,2.438 c0.5880000000000001,0.5880000000000001 1.8760000000000001,0.5880000000000001 2.463,0 l5.098,-2.233 l-0.261,-2.624 L15.966002365112306,17.37424990844727 z" id="svg_17"/><path fill="#FFFFFF" d="M26.361002365112306,11.069249908447269 L16.034002365112304,6.7722499084472645 c-0.12100000000000001,-0.12200000000000001 -0.31800000000000006,-0.12200000000000001 -0.44000000000000006,0 L5.268002365112304,11.069249908447269 C5.145002365112305,11.190249908447264 5.145002365112305,11.386249908447269 5.268002365112304,11.508249908447269 l0.77,0.44500000000000006 l-0.04900000000000001,0.6810000000000002 c-0.264,0.04400000000000001 -0.466,0.273 -0.466,0.55 c0,0.24900000000000003 0.16300000000000003,0.46 0.38900000000000007,0.533 l-0.451,6.309 l0.6220000000000001,1.866 l0.6220000000000001,-1.866 l-0.451,-6.309 c0.22600000000000003,-0.07300000000000001 0.38900000000000007,-0.28400000000000003 0.38900000000000007,-0.533 c0,-0.277 -0.202,-0.506 -0.466,-0.55 l-0.04500000000000001,-0.6260000000000001 l1.078,0.6250000000000001 l0.04300000000000001,0.025000000000000005 l8.342,4.8260000000000005 c0.12200000000000001,0.12200000000000001 0.31800000000000006,0.12200000000000001 0.43900000000000006,0 l7.92,-4.583 l0.465,-0.268 l1.9420000000000002,-1.124 C26.483002365112306,11.386249908447269 26.483002365112306,11.190249908447264 26.361002365112306,11.069249908447269 z" id="svg_18"/></g></g><g id="svg_19" class=""><g id="svg_20"><path fill="#FFFFFF" d="M79.65200236511231,17.629249908447264 c-0.10300000000000001,0.10300000000000001 -0.268,0.10300000000000001 -0.37000000000000005,0 l-6.289,-3.697 l-0.21000000000000002,2.676 l5.452,2.438 c0.5880000000000001,0.5870000000000001 1.8760000000000001,0.5870000000000001 2.464,0 l5.098,-2.233 l-0.262,-2.624 L79.65200236511231,17.629249908447264 z" id="svg_21"/><path fill="#FFFFFF" d="M90.0470023651123,11.323249908447266 l-10.327,-4.296 c-0.12100000000000001,-0.12200000000000001 -0.31700000000000006,-0.12200000000000001 -0.43900000000000006,0 l-10.326,4.296 c-0.12100000000000001,0.12100000000000001 -0.12100000000000001,0.31800000000000006 0,0.44000000000000006 l0.77,0.44500000000000006 l-0.04900000000000001,0.6800000000000002 c-0.264,0.04500000000000001 -0.466,0.274 -0.466,0.551 c0,0.24900000000000003 0.16300000000000003,0.46 0.38900000000000007,0.533 l-0.451,6.309 l0.6220000000000001,1.8650000000000002 l0.6220000000000001,-1.8650000000000002 l-0.451,-6.309 c0.22600000000000003,-0.07300000000000001 0.38900000000000007,-0.28400000000000003 0.38900000000000007,-0.533 c0,-0.277 -0.201,-0.506 -0.466,-0.551 l-0.04500000000000001,-0.6250000000000001 l1.078,0.6240000000000001 l0.04400000000000001,0.025000000000000005 l8.341,4.827 c0.12200000000000001,0.12200000000000001 0.31800000000000006,0.12200000000000001 0.43900000000000006,0 l7.92,-4.583 l0.466,-0.269 l1.941,-1.123 C90.1690023651123,11.642249908447269 90.1690023651123,11.445249908447266 90.0470023651123,11.323249908447266 z" id="svg_22"/></g><path fill="#FFFFFF" d="M87.84500236511231,32.55924990844726 c1.7560000000000002,0.18900000000000003 3.2960000000000003,0.48000000000000004 3.2960000000000003,0.48000000000000004 c-3.503,-1.85 -3.4130000000000003,-8.496 -3.4130000000000003,-8.496 c0.6130000000000001,-12.870000000000001 -8.221,-12.196 -8.221,-12.196 l-0.006000000000000002,0.020000000000000004 l-0.008000000000000002,-0.020000000000000004 c0,0 -8.834,-0.6730000000000002 -8.222,12.196 c0,0 0.09000000000000002,6.646 -3.4130000000000003,8.496 c0,0 0.9410000000000001,-0.06100000000000001 2.204,-0.08400000000000002 c-3.572,1.534 -6.062,4.979 -6.062,8.982 c0,5.4350000000000005 4.579,4.473 10.23,4.473 h10.536 c5.651,0 10.233,0.9620000000000001 10.233,-4.473 C95.0010023651123,37.53824990844726 91.9900023651123,33.815249908447264 87.84500236511231,32.55924990844726 zM81.86600236511231,35.14024990844727 l-2.365,3.696 l-2.367,-3.696 c-1.721,-0.37600000000000006 -3.049,-1.1480000000000001 -3.584,-2.1 c1.3880000000000001,0.11500000000000002 2.563,0.36100000000000004 2.866,0.8400000000000001 l-1.303,-2.795 c1.248,1.197 2.7590000000000003,1.9 4.385,1.9 c1.59,0 3.07,-0.6700000000000002 4.301,-1.819 l-0.908,1.819 c0.30500000000000005,-0.48000000000000004 1.45,-0.6100000000000001 2.794,-0.5780000000000001 C85.4710023651123,33.644249908447264 83.95600236511231,34.68424990844726 81.86600236511231,35.14024990844727 zM86.2930023651123,23.295249908447268 c-0.132,1.703 -0.5840000000000001,3.2720000000000002 -1.267,4.588 c-1.243,2.396 -3.255,3.9530000000000003 -5.525,3.9530000000000003 c-3.464,0 -6.3260000000000005,-3.6180000000000003 -6.775,-8.308 c0,0 2.733,-0.43700000000000006 4.367,-1.056 c0,0 2.959,-0.9500000000000001 6.571,-3.452 c0.019000000000000003,-0.013000000000000003 0.037000000000000005,-0.024000000000000004 0.05500000000000001,-0.037000000000000005 c0,0 0.06400000000000002,0.08900000000000002 0.15700000000000003,0.24400000000000002 c0.31300000000000006,0.515 0.984,2.057 -0.28400000000000003,2.761 l2.313,0.28300000000000003 h0.04400000000000001 l0.42300000000000004,0.07500000000000001 C86.3650023651123,22.668249908447265 86.3410023651123,22.986249908447263 86.2930023651123,23.295249908447268 z" id="svg_23"/></g></g></svg>