<svg height='300px' width='300px'  fill="#FFFFFF" xmlns="http://www.w3.org/2000/svg" xmlns:xlink="http://www.w3.org/1999/xlink" version="1.1" x="0px" y="0px" viewBox="0 0 64 64" style="enable-background:new 0 0 64 64;" xml:space="preserve"><g><path d="M33,1v30h30V1H33z M61,29H35V3h26V29z"></path><path d="M33,63h30V33H33V63z M35,35h26v26H35V35z"></path><path d="M1,31h30V1H1V31z M3,3h26v26H3V3z"></path><path d="M1,63h30V33H1V63z M3,35h26v26H3V35z"></path><path d="M25.526,10.5c-0.659-1.141-2.238-1.427-4.693-0.846c-0.447,0.106-0.921,0.248-1.404,0.406C18.814,7.163,17.691,5,16,5   s-2.814,2.163-3.429,5.06c-0.483-0.158-0.957-0.3-1.404-0.406C8.714,9.075,7.133,9.358,6.474,10.5   c-0.845,1.465,0.467,3.519,2.669,5.5c-2.201,1.981-3.514,4.035-2.669,5.5c0.438,0.758,1.281,1.138,2.517,1.138   c0.625,0,1.352-0.097,2.177-0.292c0.447-0.106,0.921-0.248,1.404-0.406C13.186,24.837,14.309,27,16,27s2.814-2.163,3.429-5.06   c0.483,0.158,0.957,0.3,1.404,0.406c0.825,0.195,1.551,0.292,2.177,0.292c1.236,0,2.079-0.38,2.517-1.138   c0.846-1.465-0.467-3.519-2.668-5.5C25.06,14.019,26.372,11.965,25.526,10.5z M18,16c0,0.395-0.008,0.774-0.02,1.143   c-0.313,0.195-0.638,0.392-0.98,0.589c-0.342,0.197-0.674,0.38-1,0.554c-0.326-0.174-0.658-0.356-1-0.554   c-0.342-0.197-0.666-0.394-0.98-0.589C14.008,16.774,14,16.395,14,16c0-0.395,0.008-0.774,0.02-1.143   c0.313-0.195,0.638-0.392,0.98-0.589c0.342-0.197,0.674-0.38,1-0.554c0.326,0.174,0.658,0.356,1,0.554   c0.342,0.197,0.667,0.394,0.98,0.589C17.992,15.226,18,15.605,18,16z M16,7.003c0.359,0.128,1.066,1.384,1.536,3.762   c-0.504,0.213-1.019,0.455-1.536,0.709c-0.517-0.254-1.032-0.496-1.536-0.709C14.934,8.388,15.641,7.131,16,7.003z M8.208,11.501   c0.29-0.247,1.733-0.231,4.029,0.552c-0.069,0.55-0.12,1.114-0.158,1.683c-0.473,0.318-0.936,0.644-1.378,0.979   C8.875,13.118,8.14,11.876,8.208,11.501z M8.208,20.499c-0.069-0.375,0.667-1.616,2.493-3.214c0.442,0.335,0.905,0.661,1.378,0.979   c0.039,0.568,0.09,1.133,0.158,1.683C9.942,20.729,8.499,20.745,8.208,20.499z M16.015,25.001   c-0.354-0.097-1.074-1.356-1.551-3.767c0.504-0.213,1.018-0.454,1.536-0.708c0.518,0.254,1.033,0.496,1.537,0.709   C17.063,23.646,16.35,24.904,16.015,25.001z M23.803,20.488c-0.262,0.258-1.713,0.252-4.041-0.542   c0.069-0.55,0.119-1.114,0.158-1.682c0.473-0.318,0.937-0.644,1.379-0.979C23.152,18.901,23.886,20.149,23.803,20.488z    M19.921,13.736c-0.039-0.569-0.09-1.133-0.158-1.684c2.327-0.796,3.774-0.807,4.026-0.566c0.093,0.355-0.638,1.609-2.49,3.228   C20.856,14.38,20.393,14.054,19.921,13.736z"></path><path d="M23.025,42.389l1.46-1.46l-1.414-1.414l-1.46,1.46c-1.295-1.036-2.878-1.723-4.611-1.916V37h-2v2.059   c-1.733,0.193-3.316,0.88-4.611,1.916l-1.46-1.46l-1.414,1.414l1.46,1.46C7.939,43.684,7.252,45.267,7.059,47H5v2h2.059   c0.193,1.733,0.88,3.316,1.916,4.611l-1.46,1.46l1.414,1.414l1.46-1.46c1.295,1.036,2.878,1.723,4.611,1.916V59h2v-2.059   c1.733-0.193,3.316-0.88,4.611-1.916l1.46,1.46l1.414-1.414l-1.46-1.46c1.036-1.295,1.723-2.878,1.916-4.611H27v-2h-2.059   C24.748,45.267,24.061,43.684,23.025,42.389z M16,55c-3.86,0-7-3.14-7-7s3.14-7,7-7s7,3.14,7,7S19.86,55,16,55z"></path><path d="M16,43c-2.757,0-5,2.243-5,5s2.243,5,5,5s5-2.243,5-5S18.757,43,16,43z M16,51c-1.654,0-3-1.346-3-3s1.346-3,3-3   s3,1.346,3,3S17.654,51,16,51z"></path><path d="M43,25h-2v2h14v-2h-2v-2h6V5H37v18h6V25z M51,25h-6v-2h6V25z M39,7h18v14H39V7z"></path><path d="M52,43c0-1.858-1.28-3.411-3-3.858V37h-2v2.142c-1.72,0.447-3,2-3,3.858c0,0.894,0.305,1.712,0.803,2.379l-4.745,13.285   l1.884,0.673L43.848,54H47v1h2v-1h3.152l1.906,5.336l1.884-0.673l-4.745-13.285C51.695,44.712,52,43.894,52,43z M47,41.278V44h2   v-2.722c0.595,0.347,1,0.985,1,1.722c0,1.103-0.897,2-2,2s-2-0.897-2-2C46,42.263,46.405,41.625,47,41.278z M49,52v-1h-2v1h-2.438   l1.897-5.31C46.933,46.889,47.454,47,48,47s1.067-0.111,1.541-0.31L51.438,52H49z"></path></g></svg>